<?xml version="1.0" standalone="no"?>
<!DOCTYPE svg PUBLIC "-//W3C//DTD SVG 20010904//EN"
 "http://www.w3.org/TR/2001/REC-SVG-20010904/DTD/svg10.dtd">
<svg version="1.0" xmlns="http://www.w3.org/2000/svg"
 width="512.000000pt" height="512.000000pt" viewBox="0 0 512.000000 512.000000"
 preserveAspectRatio="xMidYMid meet">
<metadata>
Created by potrace 1.14, written by Peter Selinger 2001-2017
</metadata>
<g transform="translate(0.000000,512.000000) scale(0.100000,-0.100000)"
fill="#000000" stroke="none">
<path d="M2370 5114 c-851 -76 -1568 -517 -2002 -1230 -173 -284 -289 -613
-345 -974 -24 -161 -24 -539 0 -700 128 -832 599 -1511 1320 -1904 384 -210
858 -319 1307 -302 874 33 1648 487 2102 1232 169 279 283 594 340 946 31 192
31 564 0 756 -186 1143 -1033 1984 -2172 2157 -101 15 -455 27 -550 19z m391
-505 c719 -73 1337 -502 1650 -1144 546 -1122 -22 -2471 -1203 -2860 -804
-264 -1683 -16 -2226 630 -640 762 -640 1888 0 2650 436 519 1109 793 1779
724z"/>
<path d="M3500 3837 c-22 -7 -72 -47 -132 -105 l-97 -94 -73 26 c-228 78 -467
56 -670 -64 -87 -51 -218 -181 -267 -263 -84 -143 -115 -268 -108 -442 3 -101
9 -135 36 -214 l32 -95 -420 -420 c-412 -413 -420 -422 -436 -479 -33 -115 13
-234 113 -294 69 -41 133 -50 209 -28 57 16 66 24 479 436 l420 420 95 -32
c79 -27 113 -33 214 -36 226 -9 400 54 561 201 235 213 314 536 208 844 l-26
73 94 97 c68 70 97 108 106 138 52 178 -66 345 -243 343 -33 -1 -76 -6 -95
-12z m-455 -675 c47 -24 95 -73 121 -122 27 -52 26 -172 -3 -225 -46 -85 -138
-144 -227 -145 -81 0 -126 19 -186 80 -37 36 -60 69 -68 96 -42 144 34 288
178 335 41 14 142 3 185 -19z"/>
</g>
</svg>
